<svg xmlns="http://www.w3.org/2000/svg" viewBox="0 0 162.94 163.02"><g id="Layer_2" data-name="Layer 2"><g id="Layer_1-2" data-name="Layer 1"><path d="M119,9.2a50.7,50.7,0,0,0-18.92,3.08c-18.71,7.29-30,20.85-32.67,40.78C65.19,69.21,70.22,83.32,82,94.69c3.88,3.75,8.47,6.82,12.89,10,9.06,6.46,15.21,14.88,17.92,25.71a43.76,43.76,0,0,1-1.43,26.08,2.2,2.2,0,0,1-1.43,1.43,81.34,81.34,0,0,1-86.76-19.55A83.24,83.24,0,0,1,8.63,118a12.71,12.71,0,0,1-1-6.56c.34-8,3.77-14.69,9.47-20.24C23.85,84.65,28.79,77,30.87,67.75a38.17,38.17,0,0,0-3.82-27.87c-1.94-3.46-3.74-7-4-11.07a7.43,7.43,0,0,1,2.36-6.37A81.48,81.48,0,0,1,118.07,8.7C118.38,8.85,118.67,9,119,9.2Z"/><path d="M117.67,154.46c.46-2.72,1.08-5.38,1.33-8.06,1.49-16.73-3.74-30.95-16.39-42.12-4.16-3.67-8.89-6.68-13.29-10.08C77,84.63,71.47,71.84,72.21,56.45c1-20.79,17.09-38.21,37.7-41.33a44.37,44.37,0,0,1,20.28,1.55,5.39,5.39,0,0,1,1.78.92c17.51,14.2,28,32.41,30.44,54.87,2.71,25.32-5,47.29-22.52,65.79a79.21,79.21,0,0,1-21.52,15.91C118.14,154.28,117.89,154.36,117.67,154.46Z"/><path d="M3.28,104.35A81.34,81.34,0,0,1,17.92,30.59c.88,5.3,3.59,9.57,5.71,14.1,3.94,8.39,3.91,17,1,25.73a41.77,41.77,0,0,1-11.19,17.1,35.57,35.57,0,0,0-9.88,16C3.55,103.75,3.46,103.92,3.28,104.35Z"/></g></g></svg>