<svg xmlns="http://www.w3.org/2000/svg" viewBox="0 0 438.27 105.26"><defs><style>.cls-1{fill:#fff;}</style></defs><g id="Layer_2" data-name="Layer 2"><g id="Layer_1-2" data-name="Layer 1"><path class="cls-1" d="M0,105.19V.07H35a39.75,39.75,0,0,1,18.36,4A29.51,29.51,0,0,1,65.52,15.41a32.77,32.77,0,0,1,4.32,17.06,32.43,32.43,0,0,1-4.39,17A30,30,0,0,1,53.28,60.84a39.18,39.18,0,0,1-18.29,4H18v40.32ZM18,48.6H35q7.48,0,12-4.39t4.53-11.74Q51.55,25,47,20.66T35,16.34H18Z"/><path class="cls-1" d="M80.35,105.19,106.85.07H130l26.64,105.12H138.24L132.48,79.7H104.54l-5.76,25.49ZM107.85,65h21.32l-6.34-28.23q-1.59-7-2.73-12.74c-.77-3.79-1.3-6.56-1.59-8.28-.29,1.72-.79,4.49-1.51,8.28s-1.66,8-2.81,12.6Z"/><path class="cls-1" d="M172.51,105.19V.07h31.25a40.08,40.08,0,0,1,18.5,4,29.35,29.35,0,0,1,12.17,11.38,33.72,33.72,0,0,1,4.32,17.42V72.22a33.87,33.87,0,0,1-4.32,17.35,29.73,29.73,0,0,1-12.17,11.52,39.47,39.47,0,0,1-18.5,4.1Zm18-16.56h13.25q7.77,0,12.38-4.39t4.61-12V32.9q0-7.48-4.61-11.88t-12.38-4.39H190.51Z"/><path class="cls-1" d="M375.63,105.19V.07h18V88.49h44.64v16.7Z"/><path class="cls-1" d="M331.41,5.94a32.61,32.61,0,0,0-12.22,2c-12.08,4.71-19.36,13.46-21.1,26.33-1.41,10.42,1.84,19.54,9.43,26.88a71.89,71.89,0,0,0,8.33,6.44A28.48,28.48,0,0,1,326.49,101a1.41,1.41,0,0,1-.92.92,52.53,52.53,0,0,1-56-12.62,53.71,53.71,0,0,1-9.39-13.13,8.13,8.13,0,0,1-.64-4.23,18.84,18.84,0,0,1,6.11-13.07,30.09,30.09,0,0,0,8.89-15.14,24.63,24.63,0,0,0-2.47-18,17.14,17.14,0,0,1-2.59-7.15A4.79,4.79,0,0,1,271,14.49a52.62,52.62,0,0,1,59.84-8.87Z"/><path class="cls-1" d="M330.57,99.73c.29-1.76.7-3.47.85-5.2,1-10.81-2.41-20-10.58-27.2-2.68-2.37-5.74-4.31-8.58-6.51-8-6.18-11.53-14.43-11.05-24.37a28.81,28.81,0,0,1,37.44-25.69,3.51,3.51,0,0,1,1.15.6c11.31,9.17,18.1,20.93,19.65,35.43,1.75,16.34-3.24,30.53-14.54,42.47A50.85,50.85,0,0,1,331,99.54C330.87,99.62,330.7,99.67,330.57,99.73Z"/><path class="cls-1" d="M256.71,67.38a52.46,52.46,0,0,1,9.45-47.63c.57,3.43,2.31,6.18,3.69,9.11a21.78,21.78,0,0,1,.67,16.61,27.17,27.17,0,0,1-7.23,11,22.78,22.78,0,0,0-6.37,10.36C256.88,67,256.82,67.1,256.71,67.38Z"/></g></g></svg>