<svg width="26" height="24" viewBox="0 0 26 24" fill="none" xmlns="http://www.w3.org/2000/svg">
    <path fill-rule="evenodd" clip-rule="evenodd" d="M11.19 0C5.01987 0 0 4.74609 0 10.5797C0 16.4133 5.01992 21.1594 11.19 21.1594C13.9404 21.1594 16.4622 20.2163 18.4128 18.6542L23.812 23.747C23.9912 23.9157 24.2248 24 24.459 24C24.6947 24 24.9301 23.9145 25.1093 23.7438C25.4664 23.4032 25.4648 22.8527 25.1059 22.5139L19.7133 17.4274C21.3757 15.5807 22.38 13.189 22.38 10.5797C22.38 4.74609 17.36 0 11.19 0ZM17.8625 16.7705C19.5211 15.1744 20.5455 12.9879 20.5455 10.5797C20.5455 5.70488 16.3486 1.73908 11.19 1.73908C6.03125 1.73908 1.83442 5.70488 1.83442 10.5797C1.83442 15.4542 6.03125 19.4203 11.19 19.4203C13.7295 19.4203 16.036 18.4591 17.7234 16.9016C17.7428 16.879 17.7635 16.8571 17.7856 16.836C17.8102 16.8125 17.8359 16.7907 17.8625 16.7705Z" fill="#052E53"/>
</svg>
